<svg xmlns="http://www.w3.org/2000/svg" viewBox="0 0 160 160" role="img" aria-labelledby="title desc">
  <title id="title">Cat on pizza in space profile picture</title>
  <desc id="desc">An original simplified profile illustration of a white cat sitting on a pizza slice in space.</desc>
  <rect width="160" height="160" fill="#080913"/>
  <g fill="#ffffff">
    <circle cx="18" cy="18" r="1.5"/>
    <circle cx="52" cy="14" r="1"/>
    <circle cx="132" cy="22" r="1.3"/>
    <circle cx="145" cy="58" r="1"/>
    <circle cx="25" cy="92" r="1.2"/>
    <circle cx="112" cy="122" r="1"/>
    <circle cx="58" cy="139" r="1.4"/>
    <circle cx="12" cy="137" r="1"/>
    <circle cx="94" cy="39" r="1"/>
  </g>
  <path d="M10 109 151 55 122 137Z" fill="#f3c56f" stroke="#5b2f12" stroke-width="3" stroke-linejoin="round"/>
  <path d="M24 106 141 62 120 126Z" fill="#d44b25" opacity=".78"/>
  <circle cx="74" cy="91" r="8" fill="#f7dc91"/>
  <circle cx="104" cy="83" r="7" fill="#f7dc91"/>
  <circle cx="117" cy="107" r="6" fill="#f7dc91"/>
  <path d="M55 94c-8-16-3-39 19-43 16-3 31 6 34 22 2 10-1 23-9 29 8 1 17 6 18 17 1 9-8 17-24 17H67c-17 0-25-9-24-20 1-9 5-17 12-22Z" fill="#f4f1e9" stroke="#b9b4aa" stroke-width="3"/>
  <path d="M62 57 55 38l18 11M97 52l15-14-2 21" fill="#f4f1e9" stroke="#b9b4aa" stroke-width="3" stroke-linejoin="round"/>
  <circle cx="74" cy="72" r="2.5" fill="#222"/>
  <circle cx="94" cy="72" r="2.5" fill="#222"/>
  <path d="M83 80c3 2 6 2 9 0" fill="none" stroke="#8c7777" stroke-width="2" stroke-linecap="round"/>
  <path d="M68 101c-6 13-5 25 0 36M94 103c8 10 11 21 10 34" fill="none" stroke="#d7d2c8" stroke-width="7" stroke-linecap="round"/>
</svg>
